<svg width="86" height="63" viewBox="0 0 86 63" fill="none" xmlns="http://www.w3.org/2000/svg">
<path d="M67.9598 62.9864C61.6992 62.823 57.1686 60.6172 54.3678 56.3691C51.5671 52.121 50.1667 47.2194 50.1667 41.6641C50.1667 35.292 51.4847 29.2466 54.1207 23.528C56.9215 17.8094 60.4636 12.9077 64.7471 8.823C69.1954 4.57489 73.8908 1.63389 78.8333 0L86 10.0484C83.8582 11.5189 81.5517 13.4796 79.0805 15.9304C76.7739 18.2178 74.6322 20.6687 72.6552 23.2829C70.8429 25.8971 69.6073 28.5113 68.9483 31.1256C72.0785 31.289 74.7969 32.1059 77.1034 33.5764C79.41 34.8835 81.2222 36.6808 82.5402 38.9682C83.8582 41.0923 84.5172 43.7065 84.5172 46.8109C84.5172 52.2027 82.8697 56.2874 79.5747 59.065C76.2797 61.8427 72.408 63.1498 67.9598 62.9864ZM18.0402 62.9864C11.6149 62.823 7.00191 60.6172 4.20115 56.3691C1.40038 52.121 0 47.2194 0 41.6641C0 35.292 1.31801 29.2466 3.95402 23.528C6.75479 17.8094 10.2969 12.9077 14.5805 8.823C19.0287 4.57489 23.7241 1.63389 28.6667 0L35.8333 10.0484C33.6916 11.5189 31.3851 13.4796 28.9138 15.9304C26.6073 18.2178 24.5479 20.6687 22.7356 23.2829C20.9234 25.8971 19.6054 28.5113 18.7816 31.1256C21.9119 31.289 24.6303 32.1059 26.9368 33.5764C29.2433 34.8835 31.0556 36.6808 32.3736 38.9682C33.6916 41.0923 34.3506 43.7065 34.3506 46.8109C34.3506 52.2027 32.7031 56.2874 29.408 59.065C26.113 61.6793 22.3238 62.9864 18.0402 62.9864Z" fill="#8DF315"/>
</svg>
